<?xml version="1.0" standalone="no"?>
<!DOCTYPE svg PUBLIC "-//W3C//DTD SVG 20010904//EN"
 "http://www.w3.org/TR/2001/REC-SVG-20010904/DTD/svg10.dtd">
<svg version="1.0" xmlns="http://www.w3.org/2000/svg"
 width="300.000000pt" height="300.000000pt" viewBox="0 0 300.000000 300.000000"
 preserveAspectRatio="xMidYMid meet">
<metadata>
Created by potrace 1.14, written by Peter Selinger 2001-2017
</metadata>
<g transform="translate(0.000000,300.000000) scale(0.100000,-0.100000)"
fill="#000000" stroke="none">
<path d="M1521 2529 c-19 -11 -39 -26 -46 -32 -15 -15 -106 -95 -214 -187 -46
-39 -97 -84 -115 -100 -17 -15 -71 -63 -121 -105 -49 -43 -107 -93 -128 -111
-21 -19 -42 -35 -45 -35 -4 -1 -153 -2 -331 -3 l-323 -1 -29 -33 -29 -32 0
-404 c0 -247 4 -414 10 -432 22 -61 38 -64 385 -64 l314 0 35 -32 c19 -18 59
-53 88 -78 29 -25 89 -77 133 -115 44 -39 145 -126 225 -194 80 -68 150 -129
155 -136 6 -6 24 -20 42 -30 44 -25 99 -12 128 30 20 31 20 40 20 1036 0 951
-1 1006 -18 1032 -32 49 -83 59 -136 26z"/>
<path d="M2404 2513 c-18 -15 -34 -38 -37 -51 -5 -23 10 -82 23 -92 25 -18
118 -167 164 -262 63 -132 101 -245 132 -398 25 -126 22 -392 -6 -516 -7 -27
-14 -60 -16 -74 -21 -119 -118 -336 -219 -486 -76 -112 -83 -132 -65 -178 22
-58 112 -78 154 -34 59 60 171 239 222 353 133 299 175 607 129 940 -9 70 -18
111 -36 171 -10 38 -21 76 -23 84 -18 68 -106 267 -149 335 -49 79 -130 195
-146 209 -11 10 -37 20 -58 23 -32 4 -43 0 -69 -24z"/>
<path d="M2174 2273 c-37 -7 -67 -48 -67 -91 0 -29 11 -54 40 -98 128 -189
187 -381 187 -614 0 -246 -49 -412 -186 -624 -42 -65 -47 -102 -21 -147 19
-32 62 -45 112 -34 77 17 240 343 275 550 3 17 9 48 13 70 9 53 10 276 1 348
-6 47 -25 135 -42 202 -9 34 -60 162 -84 210 -46 92 -124 206 -153 220 -28 15
-36 16 -75 8z"/>
<path d="M1894 1993 c-12 -2 -32 -15 -45 -29 -30 -32 -31 -99 -2 -140 36 -53
74 -153 88 -231 27 -155 5 -305 -65 -445 -21 -42 -40 -87 -41 -100 -7 -57 39
-108 99 -108 45 0 88 45 131 136 100 213 113 464 37 685 -43 125 -107 229
-141 229 -7 0 -19 2 -27 4 -7 2 -23 1 -34 -1z"/>
</g>
</svg>
